<svg xmlns="http://www.w3.org/2000/svg" xmlns:xlink="http://www.w3.org/1999/xlink" width="12" height="12" class="icon" p-id="1464" t="1565231218941" version="1.1" viewBox="0 0 1024 1024"><defs><style type="text/css"/></defs><path fill="teal" d="M512 0a512 512 0 1 0 512 512A512 512 0 0 0 512 0z m256 720.384a55.296 55.296 0 0 1-55.296 55.808H311.296A55.296 55.296 0 0 1 256 720.384V483.328h512z m0-289.28H256V298.496a51.2 51.2 0 0 1 51.2-51.2h136.192a51.2 51.2 0 0 1 42.496 20.992l46.08 51.2h180.736A55.296 55.296 0 0 1 768 376.32z" p-id="1465"/></svg>